<svg xmlns="http://www.w3.org/2000/svg" width="68" height="67" fill="none" xmlns:v="https://vecta.io/nano"><path d="M37.68 8.426l-19.53 6.011c-7.117 2.191-10.152 7.707-8.392 15.253l4.826 20.688c1.76 7.546 6.79 10.581 13.907 8.39l19.53-6.011c7.117-2.191 10.134-7.702 8.374-15.248l-4.826-20.688c-1.76-7.546-6.771-10.586-13.888-8.396z" fill="url(#C)"/><g opacity=".5" filter="url(#A)"><path d="M36.282 17.679L23.381 21.65c-4.701 1.447-6.738 4.955-5.631 9.698l3.034 13.005c1.107 4.744 4.397 6.612 9.098 5.165l12.901-3.971c4.701-1.447 6.726-4.951 5.619-9.695l-3.034-13.005c-1.107-4.744-4.385-6.616-9.086-5.169z" fill="#e31313"/></g><path d="M50.563 18.7966L50.9126 18.8005C54.5048 18.8877 57.5303 20.3222 59.6714 22.78C61.8762 25.3112 63.1128 28.8922 63.1128 33.1208V52.199C63.1128 56.4162 61.8762 59.9911 59.6714 62.5193C57.4614 65.0534 54.3085 66.4998 50.563 66.4998H32.106C28.3605 66.4998 25.2031 65.0531 22.9878 62.5193C20.7776 59.9913 19.5347 56.4168 19.5347 52.199V33.1208C19.5347 28.8918 20.7767 25.3111 22.9868 22.78C25.2022 20.2431 28.3605 18.7966 32.106 18.7966H50.563Z" fill="#f03e3d" stroke="url(#D)" stroke-linejoin="round"/><path d="M64.872 15.866c-1.728 0-3.128 1.536-3.128 3.431s1.401 3.431 3.128 3.431S68 21.192 68 19.297c0-.91-.33-1.783-.916-2.426s-1.382-1.005-2.212-1.005z" fill="url(#E)"/><g filter="url(#B)"><path d="M52.462 38.513l-6.084 8.612a1.55 1.55 0 0 1-1.064.677c-.424.058-.851-.075-1.183-.369l-5.841-5.023-5.26 7.463c-.381.663-1.123.962-1.805.725s-1.133-.947-1.096-1.73c-.003-.387.116-.764.337-1.066l6.29-8.899c.253-.371.632-.615 1.051-.677s.843.064 1.177.349l5.841 5.044 5.129-7.238c.247-.373.621-.621 1.037-.687s.839.056 1.172.338c.688.59.82 1.672.3 2.44v.041z" fill="url(#F)"/><path d="M51.0222 35.8914C51.3786 35.8352 51.743 35.939 52.033 36.1843C52.6398 36.7054 52.7621 37.6727 52.2966 38.3591L52.2625 38.4109V38.448L46.2146 47.0095L46.2126 47.0115C45.9865 47.3422 45.6517 47.5533 45.2878 47.6033C44.9243 47.653 44.5548 47.5388 44.2644 47.282L44.2625 47.28L38.4216 42.2566L38.2546 42.113L38.1277 42.2937L32.8669 49.7566L32.8572 49.7722C32.5199 50.3597 31.8746 50.6101 31.2908 50.408C30.7017 50.204 30.296 49.5812 30.3289 48.8767V48.866C30.3264 48.5633 30.4075 48.2693 30.5583 48.0222L30.6287 47.9167L36.9187 39.0183L36.9207 39.0154C37.1442 38.6872 37.4755 38.4767 37.8357 38.4236C38.1954 38.3706 38.562 38.4775 38.8533 38.7263V38.7253L44.6931 43.7693L44.8601 43.9138L44.9871 43.7341L50.1169 36.4958L50.1208 36.491C50.3386 36.1614 50.6651 35.9477 51.0222 35.8914Z" stroke="url(#G)" stroke-width=".4"/></g><defs><filter id="A" x=".455" y=".201" width="65.243" height="66.795" filterUnits="userSpaceOnUse" color-interpolation-filters="sRGB"><feFlood flood-opacity="0"/><feBlend in="SourceGraphic"/><feGaussianBlur stdDeviation="8.5"/></filter><filter id="B" x="15.127" y="20.677" width="52.653" height="45.001" filterUnits="userSpaceOnUse" color-interpolation-filters="sRGB"><feFlood flood-opacity="0" result="A"/><feColorMatrix in="SourceAlpha" values="0 0 0 0 0 0 0 0 0 0 0 0 0 0 0 0 0 0 127 0"/><feOffset dx="5" dy="5"/><feGaussianBlur stdDeviation="5"/><feColorMatrix values="0 0 0 0 1 0 0 0 0 0.321569 0 0 0 0 0.54902 0 0 0 0.5 0"/><feBlend in2="A"/><feBlend in="SourceGraphic"/></filter><linearGradient id="C" x1="36.846" y1="35.622" x2="2.468" y2="63.315" href="#H"><stop stop-color="#f03e3d"/><stop offset="1" stop-color="#870404"/></linearGradient><linearGradient id="D" x1="26.813" y1="24.738" x2="57.065" y2="58.897" href="#H"><stop stop-color="#fff" stop-opacity=".25"/><stop offset="1" stop-color="#fff" stop-opacity="0"/></linearGradient><linearGradient id="E" x1="65.332" y1="19.757" x2="59.652" y2="22.275" href="#H"><stop stop-color="#ff759f" stop-opacity="0"/><stop offset="1" stop-color="#ff196e"/></linearGradient><linearGradient id="F" x1="51.174" y1="38.385" x2="25.975" y2="39.626" href="#H"><stop stop-color="#fff"/><stop offset="1" stop-color="#fff" stop-opacity=".2"/></linearGradient><linearGradient id="G" x1="33.733" y1="37.424" x2="41.873" y2="52.65" href="#H"><stop stop-color="#fff" stop-opacity=".25"/><stop offset="1" stop-color="#fff" stop-opacity="0"/></linearGradient><linearGradient id="H" gradientUnits="userSpaceOnUse"/></defs></svg>